<svg width="16" height="20" viewBox="0 0 16 20" fill="none" xmlns="http://www.w3.org/2000/svg">
<path d="M1 1L1 19M2.4719 11.5167C4.2565 10.9141 6.21368 11.104 7.8491 12.0385C9.43378 12.9441 11.3231 13.1518 13.0666 12.6121L14.376 12.2068C14.747 12.092 15 11.7488 15 11.3604V2.48517C15 1.59568 13.3336 2.41833 12.9549 2.53557C11.2894 3.05107 9.48235 2.8202 8 1.90255C6.51765 0.984907 4.71058 0.754042 3.04513 1.26954L1.59885 1.71719C1.24278 1.82741 1 2.15669 1 2.52944V11.4561C1 12.2118 2.13797 11.6294 2.4719 11.5167Z" stroke="white" stroke-width="2" stroke-linecap="round" stroke-linejoin="round"/>
</svg>
