<svg width="24" height="24" viewBox="0 0 24 24" fill="none" xmlns="http://www.w3.org/2000/svg">
<g clip-path="url(#clip0_1884_226180)">
<path d="M9.00002 20C8.87102 20 8.74302 19.95 8.64602 19.854L4.14602 15.354C3.98202 15.19 3.95302 14.934 4.07502 14.736C4.44902 14.134 13.354 0 23.5 0C23.776 0 24 0.224 24 0.5C24 10.646 9.86502 19.55 9.26402 19.925C9.18302 19.975 9.09102 20 9.00002 20ZM5.14002 14.932L9.06802 18.86C11.172 17.472 22.543 9.578 22.987 1.013C14.416 1.458 6.52602 12.83 5.14002 14.932Z" fill="#1d1d1b"/>
<path d="M0.500062 17C0.395062 17 0.289062 16.966 0.202062 16.901C0.0650616 16.8 -0.0099384 16.637 0.0010616 16.467C0.0060616 16.393 0.581062 9 8.50006 9C8.77606 9 9.00006 9.224 9.00006 9.5C9.00006 9.776 8.77606 10 8.50006 10C2.92306 10 1.48106 13.985 1.11806 15.734L4.32406 14.531C4.58006 14.436 4.87106 14.565 4.96806 14.823C5.06606 15.082 4.93506 15.37 4.67606 15.467L0.676062 16.967C0.618062 16.99 0.560062 17 0.500062 17Z" fill="#1d1d1b"/>
<path d="M7.49942 24C7.34242 24 7.19242 23.926 7.09842 23.798C6.99642 23.662 6.97242 23.484 7.03242 23.324L8.53242 19.324C8.62942 19.065 8.91842 18.936 9.17642 19.032C9.43542 19.129 9.56642 19.417 9.46842 19.676L8.26742 22.88C10.0174 22.509 13.9994 21.056 13.9994 15.5C13.9994 15.224 14.2234 15 14.4994 15C14.7754 15 14.9994 15.224 14.9994 15.5C14.9994 23.418 7.60642 23.994 7.53142 23.999C7.52042 24 7.51042 24 7.49942 24Z" fill="#1d1d1b"/>
<path d="M0.577473 23.9962C0.433473 23.9962 0.258473 23.9362 0.162473 23.8292C0.0674729 23.7212 -0.0155271 23.5802 0.00247294 23.4382C0.0724729 22.8742 0.759473 17.9032 3.03647 17.1222C3.89747 16.8262 4.82647 17.1472 5.78647 18.0822C5.81647 18.1012 5.84447 18.1222 5.86847 18.1462C6.85147 19.1292 7.19647 20.0762 6.89247 20.9612C6.11247 23.2392 1.14247 23.9252 0.577473 23.9962ZM3.66247 18.0192C3.55847 18.0192 3.45747 18.0352 3.36047 18.0682C2.22147 18.4592 1.42047 21.0192 1.09147 22.9112C2.95447 22.5902 5.55447 21.7842 5.94647 20.6382C6.10947 20.1602 5.86747 19.5832 5.22547 18.9202C5.19647 18.9012 5.16847 18.8792 5.14347 18.8542C4.58947 18.2982 4.09247 18.0192 3.66247 18.0192Z" fill="#1d1d1b"/>
<path d="M16 11C14.346 11 13 9.654 13 8C13 6.346 14.346 5 16 5C17.654 5 19 6.346 19 8C19 9.654 17.654 11 16 11ZM16 6C14.897 6 14 6.897 14 8C14 9.103 14.897 10 16 10C17.103 10 18 9.103 18 8C18 6.897 17.103 6 16 6Z" fill="#1d1d1b"/>
</g>
<defs>
<clipPath id="clip0_1884_226180">
<rect width="24" height="24" fill="white"/>
</clipPath>
</defs>
</svg>
