<svg width="24" height="24" viewBox="0 0 24 24" fill="none" xmlns="http://www.w3.org/2000/svg">
<path d="M11.5 24C5.159 24 0 18.841 0 12.5C0 6.159 5.159 1 11.5 1C17.841 1 23 6.159 23 12.5C23 18.841 17.841 24 11.5 24ZM11.5 2C5.71 2 1 6.71 1 12.5C1 18.29 5.71 23 11.5 23C17.29 23 22 18.29 22 12.5C22 6.71 17.29 2 11.5 2Z" fill="white"/>
<path d="M11.5 24C7.855 24 5 18.948 5 12.5C5 6.052 7.855 1 11.5 1C15.145 1 18 6.052 18 12.5C18 18.948 15.145 24 11.5 24ZM11.5 2C8.519 2 6 6.809 6 12.5C6 18.191 8.519 23 11.5 23C14.481 23 17 18.191 17 12.5C17 6.809 14.481 2 11.5 2Z" fill="white"/>
<path d="M22.5 13H0.5C0.224 13 0 12.776 0 12.5C0 12.224 0.224 12 0.5 12H22.5C22.776 12 23 12.224 23 12.5C23 12.776 22.776 13 22.5 13Z" fill="white"/>
<path d="M20.7233 7H2.28125C2.00525 7 1.78125 6.776 1.78125 6.5C1.78125 6.224 2.00525 6 2.28125 6H20.7222C20.9982 6 21.2222 6.224 21.2222 6.5C21.2222 6.776 20.9993 7 20.7233 7Z" fill="white"/>
<path d="M20.7233 19H2.28125C2.00525 19 1.78125 18.776 1.78125 18.5C1.78125 18.224 2.00525 18 2.28125 18H20.7222C20.9982 18 21.2222 18.224 21.2222 18.5C21.2222 18.776 20.9993 19 20.7233 19Z" fill="white"/>
<path d="M11.5 24C11.224 24 11 23.776 11 23.5V1.5C11 1.224 11.224 1 11.5 1C11.776 1 12 1.224 12 1.5V23.5C12 23.776 11.776 24 11.5 24Z" fill="white"/>
</svg>
